<svg xmlns="http://www.w3.org/2000/svg" xmlns:xlink="http://www.w3.org/1999/xlink" width="486" height="149" viewBox="0 0 486 149"><defs><clipPath id="a"><rect width="4.84" height="4.675" rx="0.264" fill="#8fc3ff"/></clipPath><clipPath id="b"><path d="M.265,0H4.576A.264.264,0,0,1,4.84.264V4.411a.264.264,0,0,1-.264.264H.264A.264.264,0,0,1,0,4.411V.265A.265.265,0,0,1,.265,0Z" fill="#8fc3ff"/></clipPath><clipPath id="c"><path d="M.349,0h5.7a.349.349,0,0,1,.349.349V5.828a.35.35,0,0,1-.35.35H.349A.349.349,0,0,1,0,5.829V.349A.349.349,0,0,1,.349,0Z" fill="#8fc3ff"/></clipPath><clipPath id="d"><path d="M123.771,69.369l-17.6,19.813,17.6,19.813a1.858,1.858,0,0,0,3.252-1.163v-4.663A5.215,5.215,0,0,0,125.7,99.7l-9.347-10.523L125.7,78.659a5.213,5.213,0,0,0,1.327-3.463V70.531a1.86,1.86,0,0,0-3.252-1.162" transform="translate(-106.173 -68.742)" fill="#8fc3ff"/></clipPath><clipPath id="e"><path d="M125.5,56.78v4.663a5.218,5.218,0,0,0,1.326,3.465l9.348,10.523-9.347,10.523a5.2,5.2,0,0,0-1.327,3.463v4.662a1.859,1.859,0,0,0,3.252,1.164l17.6-19.813-17.6-19.814A1.861,1.861,0,0,0,125.5,56.78" transform="translate(-125.499 -54.991)" fill="#8fc3ff"/></clipPath></defs><g transform="translate(-499 -867)"><text transform="translate(499 976)" fill="#005dff" font-size="120" font-family="InkFree, Ink Free" letter-spacing="-0.021em"><tspan x="0" y="0" xml:space="preserve">C   mpage</tspan></text><g transform="translate(452.805 523.938)"><path d="M51.837,0a14.856,14.856,0,0,1,10.5,4.35L77.661,19.671a14.857,14.857,0,0,1,4.351,10.5V51.837a14.857,14.857,0,0,1-4.352,10.506L62.341,77.661a14.857,14.857,0,0,1-10.5,4.351H30.175a14.856,14.856,0,0,1-10.5-4.35L4.351,62.341A14.857,14.857,0,0,1,0,51.837V30.175a14.857,14.857,0,0,1,4.35-10.5L19.671,4.351A14.857,14.857,0,0,1,30.175,0Z" transform="translate(124 374)" fill="#4b4b4c"/><g transform="translate(129.224 379.424)" fill="none" stroke="red" stroke-width="1" opacity="0"><circle cx="35.824" cy="35.824" r="35.824" stroke="none"/><circle cx="35.824" cy="35.824" r="35.324" fill="none"/></g><g transform="translate(139.582 385.277)"><g transform="translate(15.455 12.691)"><g transform="translate(0 0)" clip-path="url(#a)"><rect width="6.729" height="6.725" transform="matrix(0.718, -0.696, 0.696, 0.718, -2.336, 2.264)" fill="#8fc3ff"/></g></g><g transform="translate(0 23.248)"><g transform="translate(0 0)" clip-path="url(#b)"><rect width="6.729" height="6.725" transform="translate(-2.337 2.264) rotate(-44.098)" fill="#8fc3ff"/></g></g><g transform="translate(1.39 8.714)"><g transform="translate(0 0)" clip-path="url(#c)"><rect width="8.891" height="8.887" transform="translate(-3.087 2.992) rotate(-44.098)" fill="#8fc3ff"/></g></g><g transform="translate(3.602 18.662)"><g transform="translate(0 0)" clip-path="url(#d)"><rect width="44.095" height="44.095" transform="translate(-20.755 20.755) rotate(-45)" fill="#8fc3ff"/></g></g><g transform="translate(29.83 0)"><g transform="translate(0)" clip-path="url(#e)"><rect width="44.095" height="44.095" transform="translate(-20.755 20.755) rotate(-45)" fill="#8fc3ff"/></g></g></g></g></g></svg>