<svg id="Component_14_8" data-name="Component 14 – 8" xmlns="http://www.w3.org/2000/svg" width="24" height="24" viewBox="0 0 24 24">
  <rect id="Rectangle_299" data-name="Rectangle 299" width="24" height="24" rx="12" fill="#fff"/>
  <g id="Group_1560" data-name="Group 1560" transform="translate(-5.3 -4.3)">
    <path id="Path_17343" data-name="Path 17343" d="M19.786,23.208a2.266,2.266,0,0,0,2.276-2.195l.26-8.031h1.219a.325.325,0,0,0,0-.65H20.128V11.6a1.3,1.3,0,0,0-1.3-1.3H16.356a1.3,1.3,0,0,0-1.3,1.3v.732h-3.43a.325.325,0,0,0,0,.65h1.219l.26,8.031a2.266,2.266,0,0,0,2.276,2.195ZM15.706,11.6a.652.652,0,0,1,.65-.65h2.471a.652.652,0,0,1,.65.65v.732H15.706Zm-1.935,9.38-.26-8.015h8.177l-.276,8.015a1.632,1.632,0,0,1-1.626,1.577H15.4A1.62,1.62,0,0,1,13.771,20.981Z" fill="#dc2b2b"/>
    <path id="Path_17344" data-name="Path 17344" d="M48.325,44.511a.326.326,0,0,0,.325-.325V39.325a.325.325,0,0,0-.65,0v4.861A.326.326,0,0,0,48.325,44.511Z" transform="translate(-30.734 -24.034)" fill="#dc2b2b"/>
    <path id="Path_17345" data-name="Path 17345" d="M36.325,44.511a.326.326,0,0,0,.325-.325V39.325a.325.325,0,0,0-.65,0v4.861A.326.326,0,0,0,36.325,44.511Z" transform="translate(-20.685 -24.034)" fill="#dc2b2b"/>
    <path id="Path_17346" data-name="Path 17346" d="M60.325,44.511a.326.326,0,0,0,.325-.325V39.325a.325.325,0,0,0-.65,0v4.861A.326.326,0,0,0,60.325,44.511Z" transform="translate(-40.783 -24.034)" fill="#dc2b2b"/>
  </g>
</svg>
